<svg xmlns="http://www.w3.org/2000/svg"  viewBox="0 0 100 100" width="100px" height="100px" clip-rule="evenodd"><circle cx="13" cy="29" r="2" fill="#78a0cf"/><circle cx="77" cy="13" r="1" fill="#f1bc19"/><circle cx="50" cy="50" r="37" fill="#cee1f4"/><circle cx="83" cy="15" r="4" fill="#f1bc19"/><circle cx="87" cy="24" r="2" fill="#78a0cf"/><circle cx="81" cy="76" r="2" fill="#fbcd59"/><circle cx="15" cy="63" r="4" fill="#fbcd59"/><circle cx="25" cy="87" r="2" fill="#78a0cf"/><circle cx="18.5" cy="53.5" r="2.5" fill="#fff"/><circle cx="21" cy="67" r="1" fill="#f1bc19"/><circle cx="80" cy="34" r="1" fill="#fff"/><path fill="#a3754f" d="M37.49,68.552c-0.217,0-0.431-0.045-0.632-0.133c-0.077-0.034-0.147-0.081-0.208-0.14 c-0.149-0.146-0.309-0.28-0.477-0.403c-1.375-0.758-2.947-1.521-4.6-2.223c-0.142-0.058-0.299-0.12-0.452-0.17 c-0.438-0.176-0.733-0.52-0.831-0.936c-0.013-0.056-0.019-0.114-0.018-0.171c0.011-0.709,0.321-1.386,0.849-1.858 c0.891-0.652,1.799-1.16,2.753-1.553c0.862-0.345,1.669-0.799,2.406-1.352c0.121-0.091,0.269-0.141,0.42-0.141c0,0,0.357,0,0.358,0 c0.387,0,0.75,0.124,1.042,0.349c0.315,0.243,0.503,0.611,0.512,1.011c0.002,0.336-0.13,0.65-0.364,0.874 c-0.76,0.671-1.612,1.156-2.551,1.458c-0.446,0.142-0.857,0.361-1.217,0.647c0.518,0.271,1.047,0.522,1.583,0.75l2.556,1.124 c0.433,0.171,0.729,0.61,0.733,1.096c0.046,0.526-0.188,1.038-0.62,1.346c-0.315,0.264-0.765,0.426-1.227,0.426 C37.504,68.552,37.492,68.552,37.49,68.552z"/><path fill="#472b29" d="M37.077,60.172c0.216,0,0.426,0.071,0.597,0.203c0.148,0.114,0.236,0.288,0.24,0.474 c0.001,0.132-0.052,0.259-0.148,0.351c-0.664,0.585-1.441,1.027-2.283,1.298c-0.847,0.27-1.597,0.784-2.154,1.477 c0.794,0.461,1.616,0.872,2.461,1.231l2.548,1.12c0.198,0.078,0.324,0.274,0.314,0.486c0.036,0.289-0.089,0.575-0.326,0.745 c-0.231,0.191-0.521,0.295-0.82,0.295c-0.004,0-0.007,0-0.011,0c-0.001,0-0.003,0-0.004,0c-0.121,0-0.242-0.025-0.353-0.074 c-0.173-0.169-0.358-0.325-0.554-0.468c-1.477-0.82-3.056-1.588-4.738-2.301c-0.166-0.068-0.338-0.135-0.505-0.191 c-0.186-0.075-0.324-0.236-0.369-0.431c0.008-0.515,0.231-1.004,0.615-1.348c0.791-0.576,1.649-1.055,2.554-1.428 c0.913-0.365,1.774-0.849,2.56-1.44h0.357C37.065,60.172,37.071,60.172,37.077,60.172 M37.077,58.772c-0.008,0-0.035,0-0.044,0 l-0.332,0c-0.303,0-0.598,0.098-0.841,0.28c-0.688,0.516-1.441,0.94-2.239,1.26c-1.02,0.42-1.977,0.955-2.857,1.595 c-0.038,0.028-0.075,0.057-0.11,0.089c-0.674,0.602-1.068,1.466-1.082,2.37c-0.002,0.114,0.011,0.229,0.037,0.34 c0.149,0.638,0.601,1.166,1.209,1.411c0.026,0.011,0.053,0.021,0.08,0.03c0.138,0.046,0.281,0.103,0.419,0.159 c1.58,0.671,3.101,1.408,4.506,2.184c0.117,0.089,0.23,0.187,0.336,0.29c0.121,0.118,0.262,0.213,0.417,0.281 c0.29,0.127,0.598,0.191,0.915,0.191c0.623,0,1.217-0.208,1.691-0.588c0.599-0.45,0.925-1.172,0.869-1.917 c-0.016-0.747-0.471-1.42-1.166-1.71l-2.532-1.113c-0.105-0.045-0.209-0.09-0.313-0.136c0.983-0.336,1.873-0.852,2.651-1.538 c0.015-0.013,0.029-0.026,0.043-0.039c0.373-0.357,0.583-0.858,0.579-1.374c-0.014-0.631-0.301-1.197-0.786-1.57 C38.114,58.947,37.599,58.772,37.077,58.772L37.077,58.772z"/><path fill="#a3754f" d="M61.341,68.059c-0.341,0-0.665-0.131-0.911-0.368c-0.49-0.427-0.544-1.212-0.096-1.728 c0.309-0.396,0.727-0.725,1.201-0.936c0.344-0.192,0.722-0.447,1.073-0.733l0.555-0.429c0.339-0.265,0.563-0.44,0.77-0.559 c0.041-0.021,0.078-0.04,0.113-0.058c-0.169-0.141-0.363-0.25-0.574-0.319c-0.523-0.146-1.088-0.314-1.654-0.488 c-0.654-0.161-1.278-0.525-1.767-1.043c-0.07-0.074-0.124-0.163-0.156-0.259c-0.051-0.152-0.059-0.317-0.024-0.474 c0.048-0.31,0.198-0.592,0.427-0.805c0.228-0.254,0.547-0.416,0.888-0.446c0.044-0.007,0.121-0.012,0.197-0.012 s0.153,0.005,0.229,0.015c0.361,0.018,0.767,0.117,1.148,0.29l0.847,0.368c1.229,0.373,2.452,1.063,3.469,1.969 c0.317,0.226,0.52,0.585,0.549,0.976c0.002,0.604-0.333,1.089-0.992,1.491c-0.749,0.502-1.504,1.065-2.219,1.658 c-0.749,0.612-1.541,1.182-2.356,1.696c-0.244,0.131-0.467,0.189-0.691,0.193C61.362,68.059,61.346,68.059,61.341,68.059z"/><path fill="#472b29" d="M61.383,60.101c0.045,0,0.09,0.003,0.135,0.009c0.33,0.018,0.653,0.097,0.954,0.234l0.857,0.372 c-0.017-0.005-0.034-0.01-0.051-0.016l0.086,0.031l-0.035-0.015c1.228,0.378,2.359,1.019,3.315,1.88 c0.164,0.104,0.269,0.28,0.283,0.474c0,0.289-0.215,0.572-0.658,0.843c-0.796,0.533-1.564,1.106-2.301,1.717 c-0.727,0.594-1.489,1.142-2.283,1.643c-0.103,0.054-0.216,0.084-0.332,0.086c-0.003,0-0.007,0-0.01,0 c-0.159,0-0.312-0.062-0.427-0.172c-0.226-0.196-0.249-0.538-0.053-0.764c0.005-0.006,0.011-0.012,0.016-0.017 c0.248-0.32,0.572-0.573,0.941-0.738c0.435-0.239,0.847-0.517,1.231-0.831c0.615-0.468,0.985-0.781,1.231-0.923 c0.486-0.246,0.738-0.418,0.738-0.523c0.005-0.022,0.005-0.045,0-0.068c-0.303-0.499-0.775-0.875-1.329-1.058 c-0.548-0.154-1.108-0.32-1.668-0.492c-0.56-0.139-1.068-0.436-1.465-0.855c-0.013-0.038-0.013-0.079,0-0.117 c0.02-0.175,0.106-0.336,0.24-0.449c0.111-0.138,0.273-0.224,0.449-0.24C61.293,60.104,61.338,60.101,61.383,60.101 M61.383,58.701c-0.098,0-0.196,0.006-0.294,0.018c-0.493,0.052-0.955,0.286-1.291,0.649c-0.328,0.314-0.544,0.723-0.617,1.172 c-0.055,0.272-0.039,0.557,0.049,0.821c0.065,0.193,0.171,0.37,0.311,0.518c0.572,0.604,1.298,1.033,2.103,1.242 c0.322,0.099,0.644,0.196,0.964,0.29c-0.121,0.094-0.256,0.199-0.405,0.312c-0.342,0.278-0.672,0.503-1.015,0.695 c-0.536,0.25-1.011,0.624-1.381,1.086c-0.696,0.8-0.62,2.01,0.161,2.716c0.374,0.349,0.861,0.54,1.373,0.54 c0.372-0.007,0.703-0.093,0.996-0.248c0.032-0.017,0.062-0.034,0.092-0.054c0.839-0.529,1.654-1.115,2.422-1.743 c0.699-0.579,1.428-1.123,2.173-1.623c1.074-0.668,1.301-1.466,1.301-2.021c0-0.034-0.001-0.069-0.004-0.103 c-0.043-0.583-0.341-1.121-0.806-1.468c-1.066-0.943-2.341-1.666-3.698-2.096L63.03,59.06c-0.426-0.193-0.898-0.312-1.386-0.345 C61.558,58.706,61.471,58.701,61.383,58.701L61.383,58.701z"/><path fill="#a3754f" d="M47.12,61.106c-0.229,0-0.453-0.113-0.586-0.317c-0.112-0.172-0.25-0.325-0.41-0.456 c-0.126,0.016-0.163,0.022-0.197,0.036l-1.72,0.622c-0.253,0.075-0.472,0.107-0.692,0.109c-0.003,0-0.007,0-0.01,0 c-0.487,0-0.888-0.116-1.236-0.334c-0.461-0.365-0.793-0.747-1.053-1.182c-0.19-0.319-0.099-0.731,0.209-0.939l0.511-0.345 c0.117-0.079,0.253-0.12,0.392-0.12c0.053,0,0.107,0.006,0.16,0.019c0.19,0.044,0.353,0.167,0.449,0.336 c0.107,0.189,0.246,0.357,0.41,0.5c-0.003-0.003-0.001-0.005,0.003-0.005c0.013,0,0.048,0.008,0.084,0.008l0.104-0.002 c0.041,0,0.081-0.006,0.119-0.018l1.834-0.611c0.119-0.054,0.303-0.091,0.493-0.091c0.477,0,0.893,0.13,1.248,0.378 c0.399,0.314,0.712,0.659,0.964,1.051c0.073,0.113,0.111,0.245,0.111,0.379c0,0.254-0.138,0.5-0.359,0.624l-0.486,0.271 C47.353,61.077,47.236,61.106,47.12,61.106z"/><path fill="#472b29" d="M42.326,58.88c0.147,0.258,0.336,0.489,0.56,0.683c0.16,0.114,0.351,0.175,0.546,0.175 c0.023,0,0.046-0.001,0.069-0.003c0.012,0,0.024,0.001,0.035,0.001c0.111,0,0.221-0.017,0.328-0.05l1.846-0.615 c0.086-0.037,0.179-0.056,0.273-0.056c0.006,0,0.011,0,0.017,0c0.009,0,0.017,0,0.026,0c0.288,0,0.569,0.088,0.805,0.253 c0.304,0.24,0.566,0.529,0.775,0.855l0,0.012l-0.486,0.271c-0.152-0.232-0.339-0.44-0.554-0.615 c-0.141-0.094-0.306-0.143-0.474-0.143c-0.018,0-0.037,0.001-0.055,0.002c0,0,0,0-0.001,0c-0.124,0-0.247,0.023-0.362,0.068 l-1.705,0.615c-0.15,0.044-0.305,0.066-0.462,0.068c-0.023,0.001-0.047,0.002-0.07,0.002c-0.282,0-0.558-0.079-0.798-0.229 c-0.329-0.264-0.608-0.585-0.825-0.948L42.326,58.88 M42.326,57.48c-0.277,0-0.55,0.082-0.783,0.24l-0.511,0.345 c-0.616,0.416-0.8,1.24-0.419,1.878c0.303,0.507,0.69,0.952,1.15,1.321c0.043,0.034,0.087,0.066,0.133,0.095 c0.462,0.29,0.995,0.443,1.541,0.443c0.036,0,0.072-0.001,0.108-0.002c0.275-0.005,0.549-0.046,0.813-0.123 c0.029-0.008,0.057-0.018,0.085-0.028l1.467-0.53c0.013,0.017,0.025,0.035,0.036,0.053c0.267,0.409,0.714,0.634,1.173,0.634 c0.231,0,0.465-0.057,0.68-0.177l0.486-0.271c0.445-0.248,0.72-0.718,0.719-1.228c-0.001-0.267-0.078-0.541-0.223-0.765 c-0.294-0.456-0.658-0.859-1.084-1.195c-0.023-0.018-0.046-0.035-0.069-0.052c-0.473-0.329-1.028-0.503-1.605-0.503 c-0.009,0-0.043,0-0.052,0l0,0.001c-0.28,0.005-0.519,0.052-0.745,0.139l-1.617,0.539c-0.025-0.035-0.048-0.071-0.069-0.108 c-0.193-0.339-0.518-0.581-0.898-0.67C42.539,57.492,42.432,57.48,42.326,57.48L42.326,57.48z"/><path fill="#a3754f" d="M43.966,76.171c-1.805,0-3.383-0.643-4.332-1.762c-0.886-1.047-1.209-2.471-0.934-4.119 c0.042-0.249,0.213-0.456,0.45-0.542c0.078-0.029,0.159-0.043,0.24-0.043c0.164,0,0.325,0.058,0.453,0.167 c0.844,0.717,1.589,1.065,2.28,1.065c0.696,0,1.344-0.349,2.029-0.718c0.727-0.392,1.551-0.836,2.53-0.888 c0.096-0.005,0.192-0.008,0.285-0.008c1.385,0,2.446,0.613,2.837,1.639c0.438,1.147-0.034,2.523-1.229,3.59 C47.45,75.565,45.726,76.171,43.966,76.171C43.966,76.171,43.966,76.171,43.966,76.171z"/><path fill="#472b29" d="M46.968,70.023c2.57,0,3.027,2.324,1.142,4.007c-1.033,0.929-2.609,1.442-4.144,1.442 c-2.645,0-5.167-1.523-4.575-5.066c1.077,0.915,1.957,1.231,2.734,1.231c1.7,0,2.906-1.518,4.595-1.607 C46.805,70.025,46.887,70.023,46.968,70.023 M46.968,68.623c-0.106,0-0.215,0.003-0.326,0.009c-1.132,0.059-2.03,0.543-2.822,0.97 c-0.631,0.34-1.177,0.634-1.696,0.634c-0.518,0-1.115-0.294-1.827-0.898c-0.257-0.218-0.58-0.333-0.907-0.333 c-0.162,0-0.324,0.028-0.481,0.085c-0.473,0.173-0.817,0.587-0.9,1.084c-0.392,2.347,0.376,3.845,1.09,4.687 c1.081,1.277,2.855,2.009,4.866,2.009c1.927,0,3.826-0.673,5.08-1.801c1.414-1.262,1.957-2.933,1.413-4.358 C49.961,69.404,48.656,68.623,46.968,68.623L46.968,68.623z"/><path fill="#a3754f" d="M44.987,66.792c-0.701,0-1.369-0.335-1.788-0.896c-0.409-0.498-0.675-1.128-0.75-1.799 c-0.165-0.737,0.082-1.566,0.672-2.146c0.499-0.454,1.119-0.694,1.766-0.694h0.139c0.525,0,1.036,0.153,1.476,0.442 c0.035,0.023,0.068,0.049,0.099,0.078c0.606,0.577,0.911,1.417,0.815,2.248c0.005,1.117-0.387,1.958-1.16,2.422 c-0.392,0.222-0.82,0.338-1.253,0.345C44.998,66.792,44.991,66.792,44.987,66.792z"/><path fill="#472b29" d="M44.888,61.955c0.024,0,0.048,0,0.072,0.001c0.021-0.001,0.043-0.001,0.064-0.001 c0.388,0,0.768,0.113,1.093,0.327c0.451,0.428,0.674,1.044,0.603,1.661c0,0.941-0.271,1.569-0.825,1.901 c-0.276,0.156-0.587,0.241-0.905,0.246c-0.001,0-0.002,0-0.003,0c-0.483,0-0.938-0.228-1.228-0.615 c-0.341-0.417-0.555-0.923-0.615-1.458c-0.124-0.569,0.052-1.161,0.468-1.569C43.962,62.13,44.417,61.955,44.888,61.955 M44.935,64.51c0.34,0,0.615-0.275,0.615-0.615c0-0.34-0.275-0.615-0.615-0.615s-0.615,0.275-0.615,0.615 C44.32,64.235,44.595,64.51,44.935,64.51 M44.888,60.555L44.888,60.555c-0.822,0-1.61,0.305-2.218,0.858 c-0.013,0.012-0.026,0.024-0.038,0.036c-0.746,0.732-1.068,1.771-0.87,2.793c0.099,0.77,0.409,1.493,0.897,2.098 c0.552,0.721,1.42,1.151,2.329,1.151c0.576-0.01,1.118-0.157,1.596-0.427c0.708-0.424,1.514-1.279,1.536-3.046 c0.09-1.02-0.294-2.043-1.038-2.75c-0.06-0.057-0.126-0.109-0.195-0.155c-0.554-0.365-1.198-0.558-1.862-0.558l-0.064,0.001 L44.888,60.555L44.888,60.555L44.888,60.555z"/><path fill="#a3754f" d="M50.235,70.25c-0.077,0-0.152-0.014-0.223-0.038c-0.236-0.025-0.466-0.084-0.686-0.178 c-0.308-0.15-0.552-0.329-0.762-0.548c-0.201-0.194-0.387-0.437-0.536-0.702c-0.142-0.236-0.27-0.506-0.369-0.784 c-0.026-0.075-0.041-0.155-0.041-0.235c0-0.084,0.016-0.218,0.045-0.297c0.042-0.113,0.107-0.212,0.19-0.296 c0.132-0.132,0.311-0.205,0.495-0.205c0.039,0,0.079,0.003,0.118,0.01c0.224,0.039,0.416,0.183,0.513,0.388 c0.067,0.14,0.146,0.272,0.239,0.396c0.069,0.089,0.161,0.182,0.264,0.264c0.064,0.049,0.153,0.095,0.247,0.125 c0.115,0.035,0.243,0.054,0.371,0.054c0.214,0,0.373-0.027,0.523-0.079c0.134-0.047,0.258-0.123,0.364-0.223 c0.219-0.175,0.365-0.336,0.484-0.519c0.13-0.2,0.351-0.319,0.587-0.319c0.021,0,0.042,0.001,0.064,0.003 c0.259,0.024,0.483,0.189,0.583,0.429c0.085,0.119,0.084,0.178,0.084,0.324c0,0.061-0.008,0.177-0.024,0.235 c-0.037,0.139-0.087,0.273-0.149,0.404c-0.063,0.143-0.146,0.296-0.241,0.442c-0.088,0.148-0.205,0.308-0.336,0.454 c-0.134,0.15-0.279,0.288-0.435,0.413c-0.212,0.154-0.409,0.261-0.615,0.341c-0.238,0.093-0.489,0.14-0.745,0.14 C50.247,70.25,50.237,70.25,50.235,70.25z"/><path fill="#472b29" d="M48.35,67.667c0.086,0.18,0.189,0.351,0.308,0.511c0.113,0.146,0.243,0.278,0.388,0.394 c0.143,0.108,0.303,0.192,0.474,0.246c0.188,0.057,0.384,0.086,0.581,0.086c0.011,0,0.023,0,0.034,0c0.008,0,0.016,0,0.024,0 c0.237,0,0.472-0.04,0.696-0.117c0.229-0.081,0.439-0.209,0.615-0.375c0.231-0.182,0.431-0.4,0.591-0.646 c0.008,0.02,0.018,0.038,0.031,0.055v0.055c-0.026,0.097-0.061,0.192-0.105,0.283c-0.056,0.126-0.122,0.247-0.197,0.363 c-0.079,0.131-0.169,0.255-0.271,0.369c-0.108,0.12-0.225,0.231-0.351,0.332c-0.133,0.096-0.278,0.174-0.431,0.234 c-0.157,0.061-0.323,0.092-0.491,0.092c-0.002,0-0.005,0-0.007,0l-0.025-0.025c-0.212-0.007-0.42-0.053-0.615-0.135 c-0.198-0.097-0.377-0.229-0.529-0.388c-0.17-0.165-0.315-0.354-0.431-0.56c-0.129-0.215-0.236-0.441-0.32-0.677 c0-0.012,0-0.049,0-0.049C48.326,67.698,48.337,67.681,48.35,67.667 M48.35,66.267c-0.374,0-0.735,0.15-1.001,0.421 c-0.154,0.158-0.275,0.351-0.349,0.559c-0.054,0.151-0.081,0.31-0.081,0.469c0,0.16,0.027,0.368,0.081,0.519 c0.115,0.322,0.262,0.634,0.438,0.927c0.162,0.289,0.389,0.584,0.655,0.843c0.231,0.243,0.541,0.47,0.886,0.64 c0.024,0.012,0.049,0.023,0.074,0.034c0.271,0.115,0.555,0.19,0.845,0.225c0.11,0.029,0.222,0.045,0.334,0.046 c0.357,0,0.693-0.063,1.013-0.188c0.262-0.102,0.511-0.237,0.739-0.401c0.021-0.015,0.041-0.03,0.061-0.046 c0.183-0.148,0.356-0.311,0.514-0.487c0.165-0.186,0.308-0.38,0.431-0.586c0.088-0.135,0.189-0.321,0.274-0.511 c0.065-0.135,0.13-0.311,0.178-0.49c0.032-0.119,0.048-0.241,0.048-0.364v-0.055c0-0.249-0.067-0.493-0.192-0.707 c-0.218-0.414-0.63-0.695-1.102-0.742c-0.046-0.005-0.092-0.007-0.137-0.007c-0.47,0-0.913,0.237-1.173,0.636 c-0.077,0.118-0.172,0.222-0.283,0.309c-0.033,0.026-0.065,0.053-0.095,0.082c-0.035,0.033-0.076,0.058-0.121,0.074 c-0.068,0.024-0.149,0.037-0.23,0.037l-0.058,0c-0.059,0-0.117-0.009-0.173-0.026c-0.002-0.001-0.019-0.01-0.035-0.022 c-0.03-0.024-0.083-0.078-0.128-0.137c-0.047-0.064-0.104-0.158-0.151-0.257c-0.197-0.412-0.583-0.702-1.034-0.777 C48.502,66.273,48.426,66.267,48.35,66.267L48.35,66.267z"/><path fill="#eeecd9" d="M67.563,32.31c-0.04-0.059-0.081-0.119-0.121-0.178c-0.079-0.114-0.159-0.224-0.239-0.334 c-0.066-0.09-0.131-0.179-0.197-0.266c-0.063-0.083-0.126-0.165-0.189-0.245c-0.088-0.113-0.177-0.223-0.266-0.332 c-0.044-0.053-0.088-0.107-0.132-0.159c-0.121-0.144-0.242-0.283-0.364-0.418c-0.014-0.015-0.028-0.031-0.041-0.046 c-3.226-3.556-6.745-4.294-8.875-4.76l-1.009-0.228c-3.692-0.708-6.793-1.065-9.938-0.615c-1.238,0.27-2.434,0.704-3.557,1.292 c-1.544,0.701-3.151,1.428-4.701,1.538c-1.623,0.419-3.032,1.428-3.951,2.831l-0.172,0.246c-0.824,1.724-1.041,3.676-0.615,5.538 c0.338,1.108,0.757,2.191,1.151,3.231c0.904,2.122,1.558,4.342,1.951,6.615c0.408,0.808,0.725,1.658,0.948,2.535 c0.523,1.821,1.12,3.871,2.738,5.464h0.043c0.013-0.006,0.026-0.011,0.039-0.017c0.003,0.003,0.006,0.007,0.01,0.011 c0.054-0.026,0.108-0.048,0.162-0.073l0.053,2.159v0.049h0.037c2.138-1.225,4.505-2,6.953-2.277 c3.895-0.351,7.883,0.837,11.778,3.557h0.037v-0.062c0.112-0.627,0.172-1.26,0.199-1.894l0.317,0.131 c0.026-0.011,0.05-0.029,0.075-0.044c0.008,0.003,0.016,0.007,0.025,0.01c0.96-0.418,1.446-3.643,2.092-6.646 c2.326-5.323,7.526-9.23,7.212-14.153C68.548,33.856,68.062,33.043,67.563,32.31z"/><polygon fill="#eeecd9" points="59.617,55.606 59.61,55.603 59.605,55.606"/><path fill="#a3754f" d="M54.547,66.755c-0.701,0-1.37-0.335-1.791-0.896c-0.413-0.497-0.68-1.13-0.751-1.805 c-0.166-0.729,0.078-1.559,0.665-2.141c0.5-0.459,1.124-0.702,1.775-0.702l0.119,0c0.532,0,1.048,0.156,1.49,0.451 c0.588,0.41,0.887,1.133,0.928,2.218c0.121,0.933-0.308,1.913-1.124,2.497c-0.438,0.253-0.867,0.37-1.301,0.376 C54.554,66.755,54.55,66.755,54.547,66.755z"/><path fill="#472b29" d="M54.444,61.912c0.022,0,0.044,0,0.066,0.001c0.019,0,0.037-0.001,0.056-0.001 c0.391,0,0.775,0.116,1.101,0.333c0.388,0.271,0.585,0.831,0.615,1.661c0.094,0.738-0.225,1.469-0.831,1.901 c-0.276,0.157-0.587,0.241-0.905,0.246c-0.484,0-0.94-0.228-1.231-0.615c-0.345-0.415-0.559-0.922-0.615-1.458 c-0.126-0.568,0.048-1.16,0.462-1.569C53.513,62.09,53.97,61.912,54.444,61.912 M54.313,64.578c0.34,0,0.615-0.275,0.615-0.615 c0-0.34-0.275-0.615-0.615-0.615s-0.615,0.276-0.615,0.615C53.698,64.302,53.973,64.578,54.313,64.578 M54.444,60.512 c-0.828,0-1.619,0.308-2.229,0.868c-0.013,0.012-0.025,0.024-0.038,0.036c-0.74,0.733-1.058,1.769-0.86,2.786 c0.096,0.775,0.407,1.5,0.901,2.105c0.553,0.718,1.421,1.146,2.328,1.146c0.572-0.008,1.117-0.157,1.596-0.429 c0.042-0.024,0.084-0.05,0.123-0.079c1.007-0.72,1.545-1.922,1.413-3.15c-0.058-1.271-0.465-2.179-1.21-2.699 c-0.584-0.389-1.233-0.585-1.903-0.585l-0.056,0.001L54.444,60.512L54.444,60.512z"/><path fill="none" stroke="#472b29" stroke-linecap="round" stroke-linejoin="round" stroke-miterlimit="10" stroke-width="1.4" d="M67.563,32.31c-0.04-0.059-0.081-0.119-0.121-0.178c-0.079-0.114-0.159-0.224-0.239-0.334c-0.066-0.09-0.131-0.179-0.197-0.266 c-0.063-0.083-0.126-0.165-0.189-0.245c-0.088-0.113-0.177-0.223-0.266-0.332c-0.044-0.053-0.088-0.107-0.132-0.159 c-0.121-0.144-0.242-0.283-0.364-0.418c-0.014-0.015-0.028-0.031-0.041-0.046c-3.226-3.556-6.745-4.294-8.875-4.76l-1.009-0.228 c-3.692-0.708-6.793-1.065-9.938-0.615c-1.238,0.27-2.434,0.704-3.557,1.292c-1.544,0.701-3.151,1.428-4.701,1.538 c-1.623,0.419-3.032,1.428-3.951,2.831l-0.172,0.246c-0.824,1.724-1.041,3.676-0.615,5.538c0.338,1.108,0.757,2.191,1.151,3.231 c0.904,2.122,1.558,4.342,1.951,6.615c0.408,0.808,0.725,1.658,0.948,2.535c0.523,1.821,1.12,3.871,2.738,5.464h0.043 c0.013-0.006,0.026-0.011,0.039-0.017c0.003,0.003,0.006,0.007,0.01,0.011c0.054-0.026,0.108-0.048,0.162-0.073l0.053,2.159v0.049 h0.037c2.138-1.225,4.505-2,6.953-2.277c3.895-0.351,7.883,0.837,11.778,3.557h0.037v-0.062c0.112-0.627,0.172-1.26,0.199-1.894 l0.317,0.131c0.026-0.011,0.05-0.029,0.075-0.044c0.008,0.003,0.016,0.007,0.025,0.01c0.96-0.418,1.446-3.643,2.092-6.646 c2.326-5.323,7.526-9.23,7.212-14.153C68.548,33.856,68.062,33.043,67.563,32.31z"/><polygon fill="none" stroke="#472b29" stroke-linecap="round" stroke-linejoin="round" stroke-miterlimit="10" stroke-width="1.4" points="59.617,55.606 59.61,55.603 59.605,55.606"/><path fill="none" stroke="#472b29" stroke-linecap="round" stroke-linejoin="round" stroke-miterlimit="10" stroke-width=".25" d="M36.999,31.378c-0.01-0.057-0.02-0.112-0.029-0.166" clip-rule="evenodd"/><path fill="none" stroke="#472b29" stroke-linecap="round" stroke-linejoin="round" stroke-miterlimit="10" stroke-width=".25" d="M37.822,41.49c0.047-2.91-0.332-6.9-0.701-9.357" clip-rule="evenodd"/><path fill="none" stroke="#472b29" stroke-linecap="round" stroke-linejoin="round" stroke-miterlimit="10" stroke-width=".25" d="M36.838,30.557c-0.061-0.269-0.524-0.702-0.827-0.733c-0.275,0.041-0.538,0.143-0.767,0.302c-0.115,0.144-0.225,0.293-0.329,0.445" clip-rule="evenodd"/><path fill="none" stroke="#472b29" stroke-linecap="round" stroke-linejoin="round" stroke-miterlimit="10" stroke-width=".25" d="M47.184,33.989c-0.467,3.176-1.057,6.647-1.252,9.384c-0.037,0.511-4.541-19.931,1.489-17.784"/><path fill="none" stroke="#472b29" stroke-linecap="round" stroke-linejoin="round" stroke-miterlimit="10" stroke-width=".25" d="M47.339,32.91c-0.025,0.177-0.05,0.356-0.076,0.535"/><path fill="none" stroke="#472b29" stroke-linecap="round" stroke-linejoin="round" stroke-miterlimit="10" stroke-width=".25" d="M47.433,25.589c0.582,0.971,0.413,3.487,0.016,6.51"/><path fill="#b7b4a5" stroke="#472b29" stroke-linecap="round" stroke-linejoin="round" stroke-miterlimit="10" stroke-width=".25" d="M46.898,48.702c-1.812-5.024-2.912-10.277-3.268-15.605c-0.138-1.763,0.003-3.536,0.418-5.255c0.4-1.366,1.101-2.264,2.191-2.424	c0.398-0.051,0.802-0.022,1.188,0.086v0.055c-0.392-0.072-0.795-0.06-1.181,0.037c-0.911,0.209-0.8,0.775-1.397,2.061	c-0.466,1.653-0.616,3.38-0.443,5.089c0.775,5.07,1.729,11.987,2.554,15.919h-0.043"/><path fill="#b7b4a5" stroke="#472b29" stroke-linecap="round" stroke-linejoin="round" stroke-miterlimit="10" stroke-width=".25" d="M51.144,48.376c-0.062-0.412-0.117-0.831-0.178-1.231c-0.948-6.867-2.111-15.236,1.963-21.248h0.049	c-1.668,4.449-1.895,12.922-2.092,15.654c-0.086,1.181,0.049,3.692,0.142,5.538c0.055,0.425,0.123,0.843,0.178,1.261h-0.062"/><path fill="#b7b4a5" stroke="#472b29" stroke-linecap="round" stroke-linejoin="round" stroke-miterlimit="10" stroke-width=".25" d="M55.562,49.256c0.384-2.986,0.886-6.481,1.237-9.719c0.115-1.067,0.276-2.13,0.555-3.166c0.925-3.428,2.313-5.725,2.83-9.649v-0.055	c-2.076,3.473-3.455,7.316-4.061,11.316c-0.562,3.73-0.733,7.508-0.511,11.273H55.55"/><path fill="#b7b4a5" stroke="#472b29" stroke-linecap="round" stroke-linejoin="round" stroke-miterlimit="10" stroke-width=".25" d="M66.238,32.1c-1.846,5.686-4.024,11.242-6.24,16.867C60.06,41.521,64.048,32.561,66.238,32.1"/><path fill="#b7b4a5" stroke="#472b29" stroke-linecap="round" stroke-linejoin="round" stroke-miterlimit="10" stroke-width=".25" d="M38.609,28.297c-0.17,0.018-0.332,0.078-0.474,0.172c-0.125,0.083-0.21,0.215-0.234,0.363c0,0.222-0.172,0.258,0,0.671l0,0	c1.378,1.846,2.461,4.966,2.72,8.258c0.369,4.178-0.117,8.806,2.652,12.085l-0.043,0.037c-2.781-3.298-3.194-7.932-3.557-12.116	c-0.295-3.286-0.56-6.301-1.926-8.153l0,0c-0.232-0.259-0.35-0.601-0.326-0.948c0.027-0.162,0.118-0.306,0.252-0.4	c0.151-0.106,0.327-0.17,0.511-0.185c0.588-0.047,1.839,0.411,1.839,0.411"/><g><path fill="#a3754f" d="M56.302,76.31c-1.759,0-3.483-0.606-4.612-1.621c-1.194-1.065-1.665-2.441-1.228-3.588 c0.391-1.026,1.452-1.639,2.838-1.639c0.093,0,0.189,0.002,0.287,0.008c0.977,0.051,1.801,0.496,2.528,0.887 c0.685,0.37,1.332,0.718,2.029,0.718c0.691,0,1.437-0.348,2.28-1.065c0.128-0.109,0.29-0.167,0.453-0.167 c0.081,0,0.162,0.014,0.24,0.043c0.237,0.086,0.409,0.293,0.45,0.542c0.275,1.648-0.047,3.073-0.934,4.12 C59.686,75.667,58.106,76.31,56.302,76.31z"/><path fill="#472b29" d="M53.3,70.161c0.081,0,0.164,0.002,0.249,0.007c1.69,0.089,2.895,1.607,4.595,1.607 c0.777,0,1.657-0.317,2.734-1.231c0.592,3.544-1.93,5.066-4.575,5.066c-1.535,0-3.112-0.513-4.144-1.442 C50.272,72.485,50.729,70.161,53.3,70.161 M53.3,68.761C53.3,68.761,53.3,68.761,53.3,68.761c-1.688,0-2.993,0.781-3.492,2.089 c-0.544,1.425,0,3.097,1.418,4.362c1.25,1.124,3.149,1.797,5.076,1.797c2.011,0,3.785-0.732,4.866-2.009 c0.714-0.843,1.482-2.34,1.09-4.688c-0.083-0.497-0.427-0.911-0.9-1.084c-0.156-0.057-0.319-0.085-0.481-0.085 c-0.327,0-0.649,0.115-0.907,0.333c-0.712,0.605-1.309,0.898-1.827,0.898c-0.52,0-1.065-0.294-1.696-0.634 c-0.792-0.427-1.689-0.911-2.825-0.971C53.514,68.764,53.405,68.761,53.3,68.761L53.3,68.761z"/></g><path fill="#d82745" stroke="#472b29" stroke-miterlimit="10" d="M59.18,52.929c-0.111-1.446-2.461-3.04-5.723-3.871	c-2.351-0.625-4.814-0.702-7.2-0.228c-2.48,0.455-4.665,1.905-6.049,4.012l0.08,3.255v0.049h0.037c2.138-1.225,4.505-2,6.953-2.277	c3.895-0.351,7.883,0.837,11.778,3.557h0.037v-0.062C59.356,55.901,59.385,54.403,59.18,52.929z"/><path fill="none" stroke="#472b29" stroke-linecap="round" stroke-linejoin="round" stroke-miterlimit="10" stroke-width=".25" d="M40.924,32.638c-0.067-1.672-0.186-2.989-0.26-3.307c-0.129-0.56-0.622-1.17-2.055-1.034c-0.169,0.018-0.332,0.078-0.474,0.172	c-0.125,0.083-0.21,0.215-0.234,0.363c0,0.222-0.172,0.258,0,0.671c1.378,1.846,2.461,4.966,2.72,8.258	c0.049,0.55,0.082,1.109,0.111,1.671c0.222-1.545,0.267-3.56,0.234-5.389" clip-rule="evenodd"/><path fill="#b7b4a5" stroke="#472b29" stroke-linecap="round" stroke-linejoin="round" stroke-miterlimit="10" stroke-width=".25" d="M41.14,52.193L41.14,52.193c-2.461-2.904-3.507-7.907-4.369-12.122c-0.683-3.347-1.268-6.203-2.394-7.101l0,0	c-0.134-0.181-0.223-0.392-0.258-0.615c-0.04-0.426,0.048-0.855,0.252-1.231c0.194-0.419,0.493-0.782,0.868-1.052	c0.237-0.163,0.509-0.213,0.794-0.252l0,0c-0.283,0.039-0.553,0.144-0.788,0.308c-0.249,0.311-0.471,0.643-0.665,0.991	c-0.554,1.108,0.615,1.052,1.052,1.655c1.138,0.917,1.231,3.926,1.92,7.286c0.861,4.209,1.145,9.199,3.612,12.092l0,0l0,0	l-0.037,0.043"/></svg>